<?xml version="1.0" encoding="UTF-8"?>
<svg version="1.1" xmlns="http://www.w3.org/2000/svg" width="256" height="256">
<path d="M0 0 C1.88832047 -0.00810448 1.88832047 -0.00810448 3.81478882 -0.01637268 C7.22193006 -0.03015817 10.62855674 -0.01927965 14.03566861 -0.00266147 C17.62900107 0.01135214 21.22230852 0.00471076 24.81565857 0.00120544 C30.84479917 -0.00148362 36.8737392 0.01186687 42.90283203 0.03515625 C49.83983653 0.0617699 56.77650634 0.06350436 63.71354443 0.05176789 C70.43155415 0.04093121 77.14944467 0.04722229 83.86744499 0.06132317 C86.70642913 0.06703098 89.54532452 0.06704192 92.38430977 0.06225777 C96.36049863 0.05653114 100.33636231 0.07594865 104.3125 0.09765625 C106.0468203 0.09090378 106.0468203 0.09090378 107.81617737 0.08401489 C118.73865044 0.18237275 129.14513432 2.08920556 138.84155273 7.25170898 C139.51847168 7.60313965 140.19539062 7.95457031 140.89282227 8.31665039 C146.27460799 11.18254492 151.07923651 14.37955544 155.59155273 18.50170898 C156.42170898 19.25194336 157.25186523 20.00217773 158.10717773 20.77514648 C171.31184684 33.30772165 180.35183913 50.39795824 180.97923279 68.8170929 C180.99979916 71.09509803 181.00445954 73.37328643 180.99560547 75.65136719 C181.00590034 77.53443069 181.00590034 77.53443069 181.0164032 79.45553589 C181.03145168 82.86293556 181.03319745 86.26978265 181.02746081 89.67717385 C181.02434395 92.53947859 181.03048908 95.40173519 181.03649956 98.26403302 C181.05049012 105.02681242 181.04903025 111.78946536 181.03759766 118.55224609 C181.02613032 125.48807874 181.04018108 132.42352406 181.06699413 139.35930568 C181.08927605 145.35126729 181.09576038 151.34310844 181.08991772 157.33510846 C181.08657554 160.89745857 181.08877726 164.45956081 181.10616875 168.02187538 C181.23170358 196.41113825 181.23170358 196.41113825 176.59155273 208.50170898 C176.27748978 209.33528931 175.96342682 210.16886963 175.6398468 211.02770996 C174.86322311 212.98037057 173.9946913 214.82361462 173.02905273 216.68920898 C172.69317139 217.34791992 172.35729004 218.00663086 172.01123047 218.68530273 C168.26236488 225.65773669 163.25080226 231.03873401 157.59155273 236.50170898 C156.88514648 237.23905273 156.17874023 237.97639648 155.45092773 238.73608398 C151.10326413 243.01737105 146.34814599 245.9685064 140.96655273 248.75170898 C140.36431885 249.06914062 139.76208496 249.38657227 139.14160156 249.71362305 C123.38883103 257.40697766 107.48239639 257.10421107 90.31383514 257.039011 C86.7574701 257.02874859 83.20114245 257.03831282 79.64477539 257.04455566 C73.67708817 257.05179415 67.70960019 257.04234519 61.74194336 257.02319336 C54.88271678 257.0014318 48.02396612 257.0084859 41.16475105 257.03049898 C35.23216294 257.04876236 29.2997165 257.0511584 23.3671093 257.0407443 C19.8428253 257.0345689 16.31876356 257.03350634 12.79449463 257.04689026 C-15.25932848 257.13901113 -15.25932848 257.13901113 -27.40844727 252.50170898 C-28.24244553 252.18769135 -29.07644379 251.87367371 -29.93571472 251.55014038 C-31.8876796 250.77317263 -33.73080539 249.90461334 -35.59594727 248.93920898 C-36.2546582 248.60332764 -36.91336914 248.26744629 -37.59204102 247.92138672 C-44.56447497 244.17252113 -49.94547229 239.16095851 -55.40844727 233.50170898 C-56.14579102 232.79530273 -56.88313477 232.08889648 -57.64282227 231.36108398 C-61.94330797 226.99392409 -64.8782197 222.22632486 -67.65844727 216.81420898 C-67.97587891 216.20359619 -68.29331055 215.5929834 -68.62036133 214.96386719 C-73.90556716 204.0864023 -76.0097488 193.03226786 -75.92602539 181.01733398 C-75.93303467 179.7503064 -75.94004395 178.48327881 -75.94726562 177.17785645 C-75.96527157 173.74794207 -75.95852751 170.31851689 -75.94574928 166.88859558 C-75.93550185 163.27036381 -75.94504708 159.65216926 -75.95129395 156.03393555 C-75.95853666 149.96192027 -75.94907216 143.89010068 -75.92993164 137.81811523 C-75.90816927 130.83449238 -75.91522306 123.85133693 -75.93723726 116.86772537 C-75.95548838 110.83241449 -75.95790256 104.79724291 -75.94748259 98.7619133 C-75.94130056 95.17449045 -75.9402636 91.58728605 -75.95362854 87.99987793 C-75.96751116 83.99500618 -75.94818039 79.99091866 -75.92602539 75.98608398 C-75.93412231 74.82411499 -75.94221924 73.662146 -75.95056152 72.46496582 C-75.83616517 61.21040739 -72.96605916 50.40905056 -67.84594727 40.37670898 C-67.34212524 39.381875 -67.34212524 39.381875 -66.828125 38.36694336 C-63.08678171 31.36130122 -58.08578277 25.98214268 -52.40844727 20.50170898 C-51.70204102 19.76436523 -50.99563477 19.02702148 -50.26782227 18.26733398 C-45.90066237 13.96684828 -41.13306314 11.03193655 -35.72094727 8.25170898 C-34.80502808 7.77556152 -34.80502808 7.77556152 -33.87060547 7.28979492 C-23.01828937 2.01680853 -11.98861993 -0.10042166 0 0 Z " fill="#007BEA" transform="translate(75.408447265625,-0.501708984375)"/>
<path d="M0 0 C42.48474911 -5.14630766 42.48474911 -5.14630766 55.60372925 4.7428894 C64.19109424 12.090934 71.39237761 20.86593376 78 30 C81.60860703 28.71613378 83.27203998 26.55467366 85.47093201 23.50479126 C93.20922918 12.8218845 102.44380437 0.94227678 116.11767578 -1.31738281 C130.34128311 -2.80220563 144.82858868 -1.565618 159 0 C154.75503858 5.06522054 150.32274605 9.82573684 145.64941406 14.49584961 C144.93973984 15.20888245 144.23006561 15.92191528 143.49888611 16.65655518 C141.173755 18.99111638 138.84493601 21.32195353 136.515625 23.65234375 C134.89224013 25.27894377 133.26892989 26.90561828 131.64569092 28.53236389 C128.25498941 31.92903458 124.86224601 35.32365068 121.46826172 38.71704102 C117.10945942 43.07574113 112.75760801 47.4413117 108.407444 51.80863094 C105.06353489 55.16362114 101.71512874 58.5140945 98.36540985 61.86328316 C96.7577651 63.47211134 95.15174936 65.08256899 93.54737091 66.69465446 C91.31393773 68.93782055 89.07433633 71.17463885 86.83300781 73.40991211 C86.16702072 74.08151871 85.50103363 74.75312531 84.81486511 75.44508362 C84.2065535 76.04920074 83.59824188 76.65331787 82.97149658 77.27574158 C82.44280598 77.80497695 81.91411537 78.33421232 81.36940384 78.87948513 C80 80 80 80 78 80 C76.59121704 78.57121277 76.59121704 78.57121277 74.93994141 76.57104492 C70.84391222 71.75760635 66.44255225 67.31602796 61.9609375 62.86328125 C61.11705475 62.02081345 60.273172 61.17834564 59.40371704 60.31034851 C56.72983728 57.64202097 54.05249171 54.97720268 51.375 52.3125 C49.57008012 50.51260279 47.76539046 48.71247468 45.9609375 46.91210938 C42.65425342 43.61356003 39.34628083 40.31631558 36.03662109 37.02075195 C33.02068539 34.01753681 30.00802338 31.01113871 27 28 C26.1028125 27.1028125 25.205625 26.205625 24.28125 25.28125 C16 17 16 17 13.51953125 14.515625 C11.71977545 12.71865952 9.91546058 10.927204 8.10546875 9.140625 C7.13280027 8.17709568 6.16014408 7.21355395 5.1875 6.25 C4.68541016 5.75628906 4.18332031 5.26257813 3.66601562 4.75390625 C2.4250615 3.52139399 1.20996878 2.26294465 0 1 C0 0.67 0 0.34 0 0 Z " fill="#FBFDFE" transform="translate(49,120)"/>
<path d="M0 0 C42.48474911 -5.14630766 42.48474911 -5.14630766 55.60372925 4.7428894 C64.19109424 12.090934 71.39237761 20.86593376 78 30 C81.60860703 28.71613378 83.27203998 26.55467366 85.47093201 23.50479126 C93.20922918 12.8218845 102.44380437 0.94227678 116.11767578 -1.31738281 C130.34128311 -2.80220563 144.82858868 -1.565618 159 0 C154.75503858 5.06522054 150.32274605 9.82573684 145.64941406 14.49584961 C144.93973984 15.20888245 144.23006561 15.92191528 143.49888611 16.65655518 C141.173755 18.99111638 138.84493601 21.32195353 136.515625 23.65234375 C134.89224013 25.27894377 133.26892989 26.90561828 131.64569092 28.53236389 C128.25498941 31.92903458 124.86224601 35.32365068 121.46826172 38.71704102 C117.10945942 43.07574113 112.75760801 47.4413117 108.407444 51.80863094 C105.06353489 55.16362114 101.71512874 58.5140945 98.36540985 61.86328316 C96.7577651 63.47211134 95.15174936 65.08256899 93.54737091 66.69465446 C91.31393773 68.93782055 89.07433633 71.17463885 86.83300781 73.40991211 C86.16702072 74.08151871 85.50103363 74.75312531 84.81486511 75.44508362 C84.2065535 76.04920074 83.59824188 76.65331787 82.97149658 77.27574158 C82.44280598 77.80497695 81.91411537 78.33421232 81.36940384 78.87948513 C80 80 80 80 78 80 C76.59121704 78.57121277 76.59121704 78.57121277 74.93994141 76.57104492 C70.84391222 71.75760635 66.44255225 67.31602796 61.9609375 62.86328125 C61.11705475 62.02081345 60.273172 61.17834564 59.40371704 60.31034851 C56.72983728 57.64202097 54.05249171 54.97720268 51.375 52.3125 C49.57008012 50.51260279 47.76539046 48.71247468 45.9609375 46.91210938 C42.65425342 43.61356003 39.34628083 40.31631558 36.03662109 37.02075195 C33.0206355 34.01759487 30.00957847 31.00957847 27 28 C25.43965868 26.44684657 23.87834968 24.89466999 22.31694031 23.34259033 C19.90519805 20.9442439 17.49612781 18.54322081 15.0871582 16.14208984 C13.81264462 14.872654 12.53724235 13.60410981 11.26098633 12.33642578 C9.41515526 10.50264353 7.57250186 8.66572123 5.73046875 6.828125 C5.15556198 6.25837952 4.58065521 5.68863403 3.98832703 5.10162354 C2.63977261 3.75326334 1.31693942 2.37925516 0 1 C0 0.67 0 0.34 0 0 Z " fill="#FBFDFE" transform="translate(49,56)"/>
</svg>
